<?xml version="1.0" encoding="utf-8"?>
<!-- Generator: Adobe Illustrator 25.3.1, SVG Export Plug-In . SVG Version: 6.00 Build 0)  -->
<svg version="1.1" id="Ebene_1" xmlns="http://www.w3.org/2000/svg" xmlns:xlink="http://www.w3.org/1999/xlink" x="0px" y="0px"
	 viewBox="0 0 40 40" style="enable-background:new 0 0 40 40;" xml:space="preserve">
<style type="text/css">
	.st0{fill:#FFFFFF;}
</style>
<g id="insta">
	<path class="st0" d="M28.51,1H11.49C5.7,1,1,5.7,1,11.49v17.03C1,34.3,5.7,39,11.49,39h17.03C34.3,39,39,34.3,39,28.51V11.49
		C39,5.7,34.3,1,28.51,1z M35.63,28.51c0,3.92-3.19,7.12-7.12,7.12H11.49c-3.92,0-7.11-3.19-7.11-7.12V11.49
		c0-3.92,3.19-7.12,7.11-7.12h17.03c3.92,0,7.12,3.19,7.12,7.12L35.63,28.51L35.63,28.51z"/>
	<path class="st0" d="M20,10.21c-5.4,0-9.79,4.39-9.79,9.79s4.39,9.79,9.79,9.79s9.79-4.39,9.79-9.79S25.4,10.21,20,10.21z
		 M20,26.42c-3.54,0-6.42-2.88-6.42-6.42s2.88-6.42,6.42-6.42s6.42,2.88,6.42,6.42S23.54,26.42,20,26.42z"/>
	<path class="st0" d="M30.2,7.35c-0.65,0-1.29,0.26-1.75,0.72s-0.73,1.1-0.73,1.75s0.27,1.29,0.73,1.75s1.1,0.72,1.75,0.72
		s1.29-0.27,1.75-0.72c0.46-0.46,0.72-1.1,0.72-1.75s-0.26-1.29-0.72-1.75C31.49,7.61,30.85,7.35,30.2,7.35z"/>
</g>
</svg>
