<?xml version="1.0" encoding="utf-8"?>
<!-- Generator: Adobe Illustrator 25.3.1, SVG Export Plug-In . SVG Version: 6.00 Build 0)  -->
<svg version="1.1" id="Ebene_1" xmlns="http://www.w3.org/2000/svg" xmlns:xlink="http://www.w3.org/1999/xlink" x="0px" y="0px"
	 viewBox="0 0 40 40" style="enable-background:new 0 0 40 40;" xml:space="preserve">
<style type="text/css">
	.st0{fill:#FFFFFF;}
</style>
<path id="linkedin" class="st0" d="M38.89,3.89v32.22c0,1.53-1.24,2.78-2.78,2.78H3.89c-1.53,0-2.78-1.24-2.78-2.78V3.89
	c0-1.53,1.24-2.78,2.78-2.78h32.22C37.65,1.11,38.89,2.35,38.89,3.89z M12.22,15.56H6.67v17.78h5.56L12.22,15.56L12.22,15.56z
	 M12.72,9.44c0.01-1.77-1.41-3.21-3.18-3.22l0,0h-0.1c-1.78,0-3.22,1.44-3.22,3.22s1.44,3.22,3.22,3.22l0,0
	c1.77,0.04,3.23-1.35,3.28-3.12l0,0C12.72,9.54,12.72,9.44,12.72,9.44z M33.33,22.53c0-5.34-3.4-7.42-6.78-7.42
	c-2.25-0.11-4.39,0.98-5.62,2.87h-0.16v-2.42h-5.22v17.78h5.56v-9.46c-0.17-2.02,1.32-3.79,3.33-3.98h0.21
	c1.77,0,3.08,1.11,3.08,3.91v9.52h5.56L33.33,22.53z"/>
</svg>
