<?xml version="1.0" encoding="utf-8"?>
<!-- Generator: Adobe Illustrator 16.0.0, SVG Export Plug-In . SVG Version: 6.00 Build 0)  -->
<!DOCTYPE svg PUBLIC "-//W3C//DTD SVG 1.1//EN" "http://www.w3.org/Graphics/SVG/1.1/DTD/svg11.dtd">
<svg version="1.1" xmlns="http://www.w3.org/2000/svg" xmlns:xlink="http://www.w3.org/1999/xlink" x="0px" y="0px"
	 width="845.221px" height="207.85px" viewBox="0 0 845.221 207.85" enable-background="new 0 0 845.221 207.85"
	 xml:space="preserve">
<g id="Ebene_1">
</g>
<g id="Ebene_2">
	<g>
		<path fill="#FFFFFF" d="M138.667,104.658c20.776-2.078,26.273-16.021,28.601-26.328c2.776-12.298-2.271-31.855-4.426-40.207
			c-0.206-0.797-0.385-1.491-0.528-2.065c-1.245-5.004-2.514-13.752-2.99-17.191c7.037-2.172,14.876-4.425,21.735-5.993
			c1.308-0.299,2.125-1.601,1.827-2.908c-0.299-1.309-1.604-2.129-2.909-1.826c-17.902,4.093-42.284,12.736-42.528,12.823
			c-1.264,0.449-1.924,1.838-1.475,3.102c0.354,0.995,1.29,1.615,2.288,1.615c0.27,0,0.545-0.045,0.813-0.141
			c0.126-0.045,6.747-2.391,15.548-5.196c0.552,3.932,1.752,11.97,2.977,16.89c0.146,0.585,0.328,1.292,0.538,2.105
			c2.067,8.011,6.908,26.771,4.391,37.923c-2.3,10.185-6.991,20.83-24.347,22.566c-6.933,0.694-13.291-1.504-17.89-6.186
			c-5.231-5.327-7.658-13.24-6.657-21.713c0.158-1.332-0.794-2.539-2.126-2.697c-1.337-0.147-2.539,0.795-2.697,2.127
			c-1.175,9.942,1.746,19.305,8.015,25.687c4.974,5.064,11.578,7.766,18.839,7.766C136.656,104.81,137.657,104.76,138.667,104.658z"
			/>
		<path fill="#FFFFFF" d="M191.438,84.145c10.76,0,16.097-9.087,17.438-14.073c0.348-1.296-0.419-2.628-1.715-2.977
			c-1.294-0.346-2.627,0.42-2.976,1.715c-0.007,0.028-0.808,2.864-2.911,5.562c-2.745,3.523-6.375,5.161-10.784,4.885
			c-2.797-0.178-4.793-1.771-6.103-4.866c-0.944-2.232-1.401-5.053-1.434-8.079c4.954,0.249,9.853-1.571,13.992-5.175
			c4.563-3.972,7.457-9.651,7.372-14.47c-0.076-4.306-2.313-7.873-5.702-9.089c-2.392-0.859-7.32-1.228-13.435,5.937
			c-3.445,4.036-5.788,10.33-6.681,16.722c-0.854-0.495-1.566-1.142-2.148-1.945c-2.583-3.572-1.735-9.056-1.718-9.161
			c0.221-1.32-0.667-2.571-1.988-2.796c-1.322-0.226-2.577,0.665-2.801,1.987c-0.052,0.306-1.227,7.531,2.551,12.787
			c1.43,1.988,3.341,3.421,5.704,4.278c-0.055,4.018,0.52,7.837,1.814,10.896c2.009,4.749,5.655,7.526,10.267,7.821
			C190.609,84.132,191.027,84.145,191.438,84.145z M188.876,46.668c3.037-3.559,6.061-5.25,8.101-4.518
			c1.447,0.52,2.446,2.368,2.485,4.603c0.06,3.391-2.233,7.698-5.705,10.721c-1.889,1.646-5.619,4.206-10.516,3.989
			C183.955,55.783,185.957,50.088,188.876,46.668z"/>
		<path fill="#FFFFFF" d="M215.394,54.036c3.604,5.566,7.33,11.322,6.896,18.266c-0.762,12.198-10.035,17.837-16.082,18.65
			c-7.108,0.963-13.483-2.742-13.542-2.776c-1.153-0.688-2.643-0.309-3.33,0.842c-0.687,1.152-0.31,2.643,0.842,3.33
			c0.279,0.166,6.17,3.621,13.609,3.621c0.998,0,2.024-0.062,3.068-0.202c9.439-1.271,19.436-9.635,20.281-23.162
			c0.534-8.541-3.823-15.271-7.666-21.208c-2.267-3.502-4.408-6.81-4.815-9.618c-0.228-1.572,0.182-3.907,1.407-5.326
			c0.809-0.938,1.895-1.395,3.319-1.398c0.007,0,0.014,0,0.021,0c2.064,0,2.608,0.736,2.787,0.979
			c1.06,1.436,0.469,4.428,0.179,5.364c-0.403,1.276,0.303,2.639,1.579,3.045c1.278,0.409,2.645-0.3,3.051-1.578
			c0.193-0.605,1.806-6.022-0.887-9.696c-0.994-1.356-2.964-2.971-6.71-2.971c-0.01,0-0.021,0-0.031,0
			c-2.834,0.008-5.25,1.073-6.983,3.082c-2.446,2.834-2.896,6.726-2.537,9.197C210.408,46.335,212.83,50.076,215.394,54.036z"/>
		<path fill="#FFFFFF" d="M243.532,81.945c-1.328,4.365-7.746,11.012-19.305,10.264c-1.331-0.072-2.494,0.929-2.58,2.268
			c-0.086,1.338,0.928,2.493,2.267,2.58c0.567,0.036,1.141,0.055,1.721,0.055c9.196,0,19.76-4.604,22.544-13.752
			c2.015-6.62,3.477-17.23-7.036-32.869c-5.726-8.52-6.002-16.702-3.834-20.699c0.64-1.182,1.32-1.738,1.784-1.698
			c2.667,0.038,3.112,4.647,3.12,4.733c0.111,1.332,1.276,2.321,2.613,2.22c1.337-0.106,2.334-1.276,2.229-2.613
			c-0.25-3.146-2.22-9.115-7.891-9.197c-2.396,0.01-4.645,1.511-6.124,4.24c-4.076,7.52-0.892,18.338,4.073,25.724
			C246.366,66.967,245.404,75.793,243.532,81.945z"/>
		<path fill="#FFFFFF" d="M254.228,78.266c0.095,0.012,0.189,0.017,0.283,0.017c1.216,0,2.266-0.911,2.409-2.148
			c0.813-6.993,1.757-45.69,1.796-47.335c0.033-1.341-1.028-2.454-2.369-2.486c-0.02-0.001-0.04-0.001-0.06-0.001
			c-1.314,0-2.395,1.049-2.427,2.37c-0.01,0.4-0.978,40.117-1.765,46.892C251.941,76.905,252.896,78.111,254.228,78.266z"/>
		<path fill="#FFFFFF" d="M274.108,79.453c0.146,0.019,0.369,0.039,0.659,0.039c2.073,0,7.578-1.021,13.155-10.683
			c0.671-1.161,0.273-2.646-0.889-3.317c-1.164-0.672-2.647-0.271-3.317,0.89c-2.041,3.535-6.302,8.616-8.98,8.255
			c-4.319-0.563-6.737-7.349-6.467-18.151c0.25-9.974,5.182-21.231,9.454-25.096c1.028-0.93,1.981-1.417,2.67-1.361
			c3.171,0.237,4.277,8.004,4.295,11.513c0.004,1.339,1.091,2.421,2.429,2.421c0.002,0,0.005,0,0.008,0
			c1.341-0.005,2.425-1.095,2.421-2.437c-0.005-1.605-0.295-15.704-8.789-16.341c-2.085-0.149-4.21,0.719-6.292,2.604
			c-5.831,5.276-10.789,18.096-11.05,28.576C262.943,75.179,269.912,78.906,274.108,79.453z"/>
		<path fill="#FFFFFF" d="M288.44,48.412c-1.354-0.044-2.469,0.991-2.522,2.33c-0.053,1.341,0.99,2.47,2.33,2.523
			c0.056,0.002,1.976,0.084,5.192,0.362c-1.617,10.423-2.328,19.169-2.336,19.279c-0.107,1.337,0.891,2.507,2.228,2.614
			c1.337,0.094,2.507-0.891,2.614-2.228c0.561-7.008,1.323-13.432,2.222-19.2c4.736,0.521,10.814,1.354,17.45,2.663
			c-0.185,9.237-0.786,18.66-1.519,26.146c-0.131,1.334,0.845,2.522,2.18,2.653c0.081,0.008,0.161,0.012,0.24,0.012
			c1.234,0,2.291-0.938,2.414-2.191c0.24-2.453,1.25-13.316,1.55-25.592c0.91,0.206,1.824,0.418,2.745,0.642
			c0.193,0.047,0.386,0.069,0.576,0.069c1.094,0,2.088-0.744,2.358-1.854c0.317-1.304-0.482-2.617-1.786-2.934
			c-1.284-0.312-2.556-0.605-3.814-0.883c0.099-14.386-0.996-29.405-5.521-34.461c-1.64-1.833-3.431-2.236-4.645-2.252
			c-0.032,0-0.062,0-0.094,0c-6.652,0-11.553,9.281-15.416,29.186c-0.228,1.173-0.443,2.347-0.648,3.515
			C290.795,48.511,288.679,48.422,288.44,48.412z M310.309,20.968c0.008,0,0.016,0,0.023,0.001c0.158,0.002,0.527,0.007,1.088,0.634
			c3.224,3.602,4.293,16.237,4.255,30.212c-6.349-1.228-12.117-2.021-16.699-2.531C302.215,31.358,306.775,20.968,310.309,20.968z"
			/>
		<path fill="#FFFFFF" d="M367.131,82.509c0.184,0.043,0.367,0.062,0.548,0.062c1.105,0,2.105-0.76,2.364-1.883
			c0.716-3.104,2.198-12.252,3.879-23.244c1.225,1.5,3.451,3.043,7.484,3.314c1.812,0.121,3.729-0.183,5.685-0.826
			c0.564,2.267,1.081,4.633,1.564,6.843c2.659,12.165,5.672,25.952,14.74,28.798c1.086,0.341,2.149,0.487,3.175,0.487
			c5.979,0,10.654-4.97,10.882-5.217c0.911-0.984,0.85-2.521-0.135-3.432c-0.984-0.91-2.521-0.85-3.432,0.135
			c-0.044,0.049-4.586,4.795-9.037,3.392c-6.379-2.002-9.073-14.326-11.45-25.2c-0.599-2.74-1.177-5.386-1.803-7.833
			c7.827-4.423,15.242-13.144,17.276-20.468c1.741-6.267,1.203-14.525-3.923-18.853c-2.955-2.494-8.502-4.515-18.149,0.024
			c-3.332,1.566-5.972,3.833-8.071,6.408c1.727-11.91,3.047-21.233,3.191-22.248c0.188-1.328-0.737-2.557-2.064-2.744
			c-1.331-0.195-2.557,0.736-2.745,2.064c-0.096,0.681-9.663,68.245-11.8,77.507C365.009,80.903,365.824,82.207,367.131,82.509z
			 M381.733,55.913c-2.338-0.158-3.907-0.919-4.417-2.142c-0.459-1.102-0.11-2.601,0.869-3.73c0.472-0.546,1.397-1.346,2.755-1.346
			c0.295,0,0.61,0.037,0.945,0.124c1.511,0.388,2.789,2.978,3.897,6.43C384.333,55.753,382.958,55.994,381.733,55.913z
			 M388.867,23.004c4.039-1.899,9.566-3.565,12.949-0.707c3.309,2.792,3.7,9.076,2.376,13.841
			c-1.706,6.14-7.903,13.133-14.01,16.944c-1.625-4.73-3.732-8.105-7.087-8.968c-0.719-0.185-1.438-0.274-2.147-0.274
			c-1.892,0-3.71,0.643-5.225,1.855C376.307,41.114,378.848,27.716,388.867,23.004z"/>
		<path fill="#FFFFFF" d="M422.962,79.476c0.161,0,0.324-0.016,0.487-0.049c1.314-0.269,2.163-1.551,1.895-2.865
			c-3.196-15.676-0.268-36.364-0.237-36.571c0.192-1.327-0.729-2.559-2.055-2.751c-1.332-0.186-2.559,0.729-2.751,2.055
			c-0.127,0.879-3.083,21.722,0.285,38.238C420.819,78.683,421.832,79.476,422.962,79.476z"/>
		<path fill="#FFFFFF" d="M437.939,84.271c0.056,0,0.111-0.002,0.168-0.006c1.338-0.091,2.349-1.25,2.258-2.588
			c-0.017-0.24-1.284-19.014-1.456-31.635c5.73,9.715,14.365,23.604,18.066,25.72c0.743,0.424,1.656,0.427,2.401,0.005
			s1.213-1.205,1.231-2.061c0.007-0.295,0.731-29.679,8.98-46.488c0.591-1.203,0.093-2.658-1.111-3.249
			c-1.203-0.591-2.658-0.095-3.25,1.11c-6.487,13.222-8.552,32.954-9.194,42.693c-4.28-5.782-11.273-17.108-17.273-27.685
			c-0.524-0.925-1.587-1.4-2.633-1.174c-1.04,0.229-1.811,1.107-1.899,2.169c-0.815,9.706,1.205,39.653,1.292,40.924
			C435.606,83.289,436.673,84.271,437.939,84.271z"/>
		<path fill="#FFFFFF" d="M490.282,55.991c-1.213,0.31-1.992,1.492-1.798,2.729c0.591,3.765-4.515,9.918-6.223,10.347
			c-0.208,0.033-1.058-0.122-2.194-1.062c-1.274-1.054-4.303-4.343-4.895-12.123c-0.88-11.55,3.45-17.917,5.354-20.118
			c2.155-2.494,4.068-3.252,4.859-3.307c1.154-0.095,2.672,3.68,3.084,7.446c0.144,1.332,1.331,2.285,2.673,2.154
			c1.333-0.143,2.299-1.34,2.156-2.674c-0.135-1.253-1.484-12.224-8.249-11.772c-2.635,0.183-5.623,1.996-8.198,4.976
			c-2.857,3.306-7.504,10.775-6.522,23.664c0.708,9.292,4.467,13.698,6.644,15.498c1.9,1.569,4.031,2.347,5.839,2.145
			c2.845-0.323,5.663-3.656,6.743-5.073c0.315-0.414,0.724-0.981,1.156-1.665c0.954,5.006,1.408,10.951-0.286,15.003
			c-3.708,8.864-8.84,9.979-12.377,10.047c-0.053,0.001-0.105,0.001-0.157,0.001c-6.995,0-11.325-8.819-11.366-8.904
			c-0.576-1.211-2.025-1.729-3.236-1.148c-1.211,0.576-1.726,2.025-1.148,3.236c0.229,0.48,5.676,11.674,15.743,11.674
			c0.085,0,0.171-0.001,0.257-0.003c7.677-0.146,13.16-4.408,16.766-13.027c4.143-9.905-1.494-25.837-1.736-26.511
			C492.745,56.344,491.495,55.679,490.282,55.991z"/>
		<path fill="#FFFFFF" d="M507.448,66.473c1.937,4.511,5.513,7.243,10.341,7.9c0.921,0.125,1.805,0.188,2.65,0.188
			c3.379,0,6.151-1,8.266-2.984c4.417-4.146,3.977-10.991,3.955-11.28c-0.096-1.335-1.271-2.336-2.587-2.243
			c-1.335,0.091-2.344,1.249-2.258,2.584c0.003,0.048,0.28,4.869-2.45,7.413c-1.524,1.419-3.854,1.93-6.92,1.51
			c-3.135-0.427-5.271-2.063-6.534-5.004c-0.612-1.427-0.975-3.098-1.105-4.905c0.413,0.027,0.83,0.031,1.257,0.008
			c9.793-0.528,17.412-8.978,17.19-15.621c-0.138-4.155-2.505-9.249-6.619-10.501c-2.506-0.764-6.399-0.41-10.73,5.603
			c-2.528,3.509-4.554,8.354-5.472,13.359c-3.242-2.939-5.637-7.916-6.519-10.34c-0.456-1.26-1.85-1.912-3.108-1.457
			c-1.262,0.456-1.915,1.849-1.459,3.109c0.19,0.527,3.826,10.375,10.552,14.283C505.891,61.072,506.364,63.949,507.448,66.473z
			 M515.844,41.978c2.038-2.829,4.001-4.217,5.374-3.794c1.604,0.488,3.09,3.3,3.181,6.017c0.113,3.403-4.705,10.184-12.598,10.609
			c-0.285,0.014-0.561,0.007-0.837-0.02C511.539,50.301,513.242,45.591,515.844,41.978z"/>
		<path fill="#FFFFFF" d="M537.304,81.211l14.896,1.271c0.07,0.006,0.14,0.009,0.209,0.009c1.248,0,2.309-0.956,2.417-2.223
			c0.114-1.336-0.877-2.512-2.214-2.626l-12.517-1.067l4.371-64.346c0.091-1.339-0.92-2.497-2.258-2.588
			c-1.379-0.104-2.498,0.921-2.588,2.258l-4.533,66.728C534.998,79.948,535.984,81.098,537.304,81.211z"/>
		<path fill="#FFFFFF" d="M566.299,78.845c0.699,0.114,1.391,0.171,2.073,0.17c3.636,0,6.979-1.595,9.389-4.539
			c2.036-2.489,2.815-5.564,2.254-8.892c-0.913-5.409-5.279-10.871-11.979-14.985c-5.969-3.666-6.52-9.287-5.177-12.986
			c1.009-2.782,3.705-5.812,7.976-5.182c1.845,0.27,3.081,0.992,3.778,2.209c1.779,3.102,0.13,8.829-0.657,10.779
			c-0.506,1.242,0.09,2.659,1.332,3.166c1.244,0.504,2.66-0.09,3.166-1.332c0.382-0.938,3.637-9.317,0.38-15.017
			c-1.008-1.765-3.093-3.997-7.296-4.612c-5.8-0.851-11.128,2.497-13.245,8.331c-2.12,5.845-0.717,13.919,7.202,18.782
			c5.424,3.331,9.062,7.688,9.731,11.654c0.325,1.932-0.086,3.617-1.225,5.008c-2.255,2.757-5.008,2.96-6.921,2.652
			c-3.931-0.641-7.566-3.944-9.263-8.415c-0.476-1.255-1.884-1.884-3.132-1.409c-1.254,0.476-1.885,1.878-1.409,3.132
			C555.577,73.422,560.688,77.931,566.299,78.845z"/>
		<path fill="#FFFFFF" d="M588.525,60.046c-0.977,8.91,1.071,15.928,5.479,18.771c1.163,0.751,2.756,1.386,4.814,1.386
			c2.057,0,4.58-0.635,7.604-2.422c1.154-0.684,1.537-2.173,0.854-3.327c-0.685-1.155-2.176-1.535-3.327-0.854
			c-2.159,1.278-5.18,2.512-7.312,1.137c-2.702-1.743-4.021-7.435-3.284-14.161c0.313-2.867,2.291-14.014,4.17-24.331l7.067,1.788
			c0.2,0.051,0.4,0.074,0.598,0.074c1.085,0,2.074-0.732,2.353-1.833c0.329-1.3-0.459-2.621-1.759-2.95l-7.384-1.868
			c1.458-7.949,2.669-14.416,2.698-14.572c0.247-1.318-0.621-2.587-1.939-2.834c-1.323-0.248-2.587,0.621-2.834,1.939
			c-0.115,0.617-1.263,6.742-2.645,14.272l-7.001-1.771c-1.3-0.328-2.621,0.458-2.95,1.759c-0.329,1.3,0.459,2.621,1.759,2.95
			l7.316,1.852C590.894,45.531,588.858,57.003,588.525,60.046z"/>
		<path fill="#FFFFFF" d="M602.318,47.6c-1.208,0.584-1.713,2.036-1.128,3.243c0.176,0.364,3.213,6.524,8.467,10.016
			c0.022,2.581,0.426,5.341,1.298,8.245c2.562,8.526,7.846,10.403,10.769,10.764c0.461,0.058,0.925,0.085,1.39,0.085
			c4.74,0,9.562-2.904,12.33-7.552c0.686-1.152,0.309-2.644-0.844-3.33c-1.151-0.684-2.643-0.309-3.33,0.844
			c-2.037,3.422-5.715,5.531-8.951,5.133c-3.062-0.377-5.382-2.916-6.711-7.34c-0.444-1.479-0.756-3.071-0.905-4.704
			c0.807,0.157,1.648,0.243,2.511,0.22c6.532-0.124,12.14-5.749,14.1-10.979c1.524-4.068,0.916-7.744-1.668-10.086
			c-2.629-2.382-6.747-2.294-10.748,0.233c-3.936,2.484-7.305,6.941-8.634,12.76c-2.895-2.782-4.674-6.368-4.702-6.428
			C604.974,47.52,603.525,47.015,602.318,47.6z M621.489,46.498c2.013-1.271,3.979-1.569,4.894-0.74
			c1.465,1.326,0.755,3.786,0.381,4.782c-1.387,3.702-5.469,7.748-9.643,7.827c-0.826,0.021-1.598-0.113-2.35-0.351
			C615.34,53.44,617.377,49.094,621.489,46.498z"/>
		<path fill="#FFFFFF" d="M648.988,44.839c0.039-1.341-1.016-2.459-2.356-2.499c-0.024,0-0.049-0.001-0.072-0.001
			c-1.309,0-2.388,1.041-2.427,2.357c-0.03,1.038-0.718,25.534,1.757,35.928c0.266,1.115,1.262,1.866,2.36,1.866
			c0.187,0,0.375-0.021,0.564-0.066c1.305-0.311,2.11-1.62,1.8-2.925C648.288,69.729,648.98,45.087,648.988,44.839z"/>
		<path fill="#FFFFFF" d="M661.687,86.774c0.044,0,0.088-0.001,0.132-0.004c1.34-0.071,2.367-1.216,2.295-2.555
			c-0.013-0.234-0.979-18.529-0.649-30.776c4.713,8.738,12.195,21.524,16.945,24.205c0.715,0.404,1.585,0.42,2.312,0.04
			c0.729-0.378,1.217-1.098,1.298-1.913c0.035-0.352,3.624-35.258,13.253-50.942c0.702-1.143,0.344-2.639-0.799-3.34
			c-1.144-0.7-2.639-0.345-3.34,0.799c-8.075,13.153-12.008,37.72-13.373,48.156c-4.755-5.896-11.787-18.54-15.899-26.763
			c-0.469-0.938-1.49-1.47-2.526-1.316c-1.038,0.153-1.86,0.956-2.039,1.989c-1.646,9.551-0.099,38.878-0.031,40.121
			C659.333,85.771,660.405,86.774,661.687,86.774z"/>
		<path fill="#FFFFFF" d="M17.423,144c-3.008-1.895-6.398-2.228-8.889-1.947l0.628-7.281c0.115-1.337-0.875-2.514-2.21-2.629
			c-1.334-0.109-2.514,0.875-2.628,2.211l-4.315,50.006c-0.067,0.772,0.239,1.53,0.824,2.04c0.447,0.389,1.015,0.598,1.596,0.598
			c0.179,0,0.359-0.02,0.538-0.061c0.197-0.045,4.897-1.144,9.763-5.063c4.466-3.598,9.969-10.358,10.822-22.131
			C24.23,150.351,20.594,145.998,17.423,144z M18.706,159.391c-0.986,13.622-8.913,19.368-13.529,21.579l2.928-33.927
			c1.008-0.301,4.337-0.601,6.995,1.241C17.886,150.216,19.1,153.953,18.706,159.391z"/>
		<path fill="#FFFFFF" d="M54.012,172.829c-1.251-0.477-2.653,0.158-3.13,1.409c-0.029,0.076-3.025,7.618-7.497,6.957
			c-1.955-0.289-3.411-1.298-4.452-3.082c-1.39-2.383-1.884-5.804-1.754-9.455c5.511-0.155,9.181-2.86,11.309-5.142
			c3.534-3.788,4.903-8.524,4.691-11.536c-0.212-3.014-2.709-5.47-6.073-5.974c-3.765-0.564-9.156,1.375-11.973,8.691
			c-0.872,2.265-1.607,4.848-2.11,7.537c-2.057-2.604-1.772-7.862-1.482-9.701c0.212-1.323-0.688-2.567-2.011-2.781
			c-1.334-0.22-2.571,0.686-2.785,2.011c-0.147,0.911-1.322,9.041,2.686,13.751c0.818,0.962,1.801,1.712,2.919,2.239
			c-0.254,4.731,0.377,9.362,2.387,12.807c1.782,3.054,4.526,4.935,7.937,5.439c0.457,0.067,0.899,0.1,1.33,0.1
			c7.517-0.001,11.259-9.711,11.423-10.147C55.898,174.698,55.264,173.303,54.012,172.829z M39.666,156.442
			c1.619-4.205,4.126-5.676,6.132-5.676c0.202,0,0.398,0.016,0.588,0.044c1.096,0.164,1.896,0.785,1.948,1.51
			c0.134,1.912-1.011,5.325-3.398,7.884c-1.402,1.503-3.76,3.27-7.245,3.562C38.132,161.17,38.821,158.637,39.666,156.442z"/>
		<path fill="#FFFFFF" d="M67.727,150.998c-3.976-3.699-4.691-8.752-3.636-12.118c0.776-2.479,2.424-4.072,4.522-4.372
			c4.785-0.69,5.672,2.6,5.831,3.632c0.185,1.319,1.401,2.246,2.721,2.071c1.33-0.175,2.267-1.394,2.092-2.724
			c-0.05-0.387-0.581-3.845-3.568-6.11c-2.053-1.558-4.666-2.119-7.765-1.678c-3.964,0.568-7.13,3.457-8.468,7.729
			c-1.843,5.884,0.104,12.606,4.962,17.126c10.434,9.71,8.799,14.321,6.662,16.946c-1.209,1.484-2.635,2.108-4.245,1.845
			c-2.904-0.472-5.935-3.642-7.541-7.89c-0.474-1.254-1.875-1.89-3.13-1.412c-1.254,0.475-1.887,1.876-1.413,3.131
			c2.269,6,6.601,10.201,11.305,10.966c0.507,0.082,1.009,0.123,1.504,0.123c2.772-0.001,5.318-1.28,7.286-3.696
			C80.054,168.171,77.659,160.241,67.727,150.998z"/>
		<path fill="#FFFFFF" d="M84.798,181.169c0.087,0,0.174-0.005,0.263-0.014c1.333-0.144,2.298-1.342,2.155-2.675
			c-1.367-12.702-0.011-26.984,0.002-27.127c0.13-1.335-0.847-2.522-2.182-2.652c-1.338-0.129-2.522,0.847-2.652,2.182
			c-0.059,0.603-1.419,14.908,0.002,28.117C82.52,180.245,83.573,181.169,84.798,181.169z"/>
		<path fill="#FFFFFF" d="M105.258,138.172c-6.315,0.362-10.837,9.719-12.517,18.831c-1.829,9.923-0.011,17.152,4.862,19.339
			c2.223,0.998,4.494,1.052,6.568,0.156c1.15-0.496,2.142-1.238,2.984-2.078c0.58,7.28,0.105,18.645-7.701,22.548
			c-4.772,2.385-9.123,2.639-12.582,0.732c-3.342-1.842-5.103-5.244-5.286-7.072c-0.133-1.334-1.316-2.316-2.659-2.174
			c-1.334,0.133-2.308,1.323-2.174,2.658c0.335,3.343,2.911,8.162,7.775,10.842c1.828,1.007,4.312,1.882,7.432,1.882
			c2.739,0,5.966-0.674,9.666-2.524c15.12-7.56,9.635-33.267,9.394-34.356c-0.234-1.062-1.145-1.838-2.23-1.901
			c-1.086-0.05-2.08,0.603-2.436,1.629c-0.379,1.093-1.949,4.425-4.107,5.356c-0.823,0.354-1.667,0.315-2.655-0.129
			c-2.493-1.119-3.365-7.018-2.073-14.027c1.581-8.578,5.495-14.717,8.018-14.861c1.28-0.077,1.843,0.374,2.189,0.773
			c1.867,2.152,1.532,8.066,0.882,11.291c-0.268,1.313,0.581,2.597,1.895,2.864c1.314,0.266,2.597-0.58,2.864-1.896
			c0.223-1.09,2.055-10.79-1.967-15.438C109.89,138.874,107.763,138.039,105.258,138.172z"/>
		<path fill="#FFFFFF" d="M143.8,131.564c-1.232-0.529-2.66,0.044-3.188,1.277c-2.933,6.855-3.646,21.932-3.754,32.702
			l-7.861-18.169c-0.427-0.983-1.443-1.569-2.513-1.447c-1.065,0.126-1.922,0.936-2.108,1.992l-5.343,30.4
			c-0.232,1.32,0.651,2.58,1.972,2.812c0.142,0.025,0.284,0.037,0.423,0.037c1.157,0,2.182-0.83,2.389-2.009l3.94-22.419
			l9.41,21.749c0.463,1.07,1.622,1.658,2.761,1.404c1.139-0.256,1.934-1.285,1.895-2.451c-0.011-0.325-1.047-32.639,3.254-42.691
			C145.605,133.519,145.034,132.092,143.8,131.564z"/>
		<path fill="#FFFFFF" d="M189.645,141.722c-1.333,0.143-2.299,1.339-2.157,2.673c0.036,0.34,3.63,34.155,3.394,45.255
			c-0.029,1.341,1.035,2.451,2.376,2.479c0.018,0.001,0.035,0.001,0.053,0.001c1.317,0,2.399-1.054,2.427-2.377
			c0.244-11.407-3.27-44.472-3.42-45.874C192.175,142.545,190.98,141.584,189.645,141.722z"/>
		<path fill="#FFFFFF" d="M226.762,184.13c-4.353-0.718-11.798-0.93-15.639-0.992c-0.152-14.461-3.467-58.245-3.618-60.222
			c-0.102-1.338-1.267-2.35-2.605-2.238c-1.337,0.102-2.339,1.269-2.237,2.605c0.039,0.515,3.901,51.509,3.592,62.187
			c-0.019,0.655,0.228,1.29,0.684,1.761c0.456,0.47,1.083,0.736,1.738,0.738c0.117,0,11.753,0.039,17.294,0.954
			c0.134,0.021,0.267,0.032,0.398,0.032c1.167,0,2.197-0.844,2.393-2.033C228.981,185.599,228.085,184.349,226.762,184.13z"/>
		<path fill="#FFFFFF" d="M230.488,171.886c-1.394,0.086-4.79-0.457-7.441-0.978c-0.524-7.844-2.265-35.62-2.285-35.932
			c-0.084-1.338-1.243-2.344-2.576-2.271c-1.339,0.084-2.356,1.237-2.272,2.576c0.089,1.414,2.174,34.679,2.416,37.817
			c0.082,1.067,0.854,1.955,1.899,2.186c0.72,0.158,6.757,1.466,9.974,1.466c0.217,0,0.421-0.006,0.609-0.019
			c1.338-0.089,2.351-1.247,2.261-2.585C232.984,172.809,231.82,171.795,230.488,171.886z"/>
		<path fill="#FFFFFF" d="M257.495,148.153c-1.34,0.063-2.375,1.2-2.312,2.54c0.743,15.848-1.639,33.055-6.368,33.411
			c-1.094,0.084-2.005-0.275-2.88-1.126c-5.472-5.312-5.836-24.72-5.515-31.749c0.062-1.34-0.975-2.476-2.314-2.537
			c-1.35-0.065-2.476,0.975-2.537,2.314c-0.129,2.809-1.033,27.672,6.981,35.455c1.699,1.65,3.752,2.511,5.972,2.511
			c0.218,0,0.438-0.008,0.659-0.024c5.688-0.43,9.087-7.118,10.39-20.449c0.876-8.962,0.481-17.668,0.464-18.034
			C259.972,149.125,258.817,148.088,257.495,148.153z"/>
		<path fill="#FFFFFF" d="M279.817,158.489c-5.738-4.864-7.429-12.026-6.107-16.296c0.369-1.192,1.136-2.647,2.693-2.808
			c0.767-0.08,1.302,0.081,1.786,0.537c1.696,1.596,2.166,6.054,2.063,8.488c-0.058,1.338,0.979,2.472,2.317,2.531
			c1.332,0.07,2.475-0.976,2.535-2.316c0.039-0.87,0.271-8.6-3.579-12.233c-1.511-1.425-3.457-2.063-5.62-1.839
			c-3.227,0.332-5.718,2.594-6.836,6.203c-1.827,5.9,0.199,15.158,7.606,21.438c6.069,5.146,5.966,10.612,5.641,12.725
			c-0.401,2.598-1.642,4.206-2.694,4.647c-1.392,0.583-3.512,0.146-5.404-1.112c-1.832-1.218-3.789-3.505-3.789-6.271
			c0-1.341-1.087-2.429-2.429-2.429s-2.429,1.088-2.429,2.429c0,3.979,2.227,7.835,5.957,10.315
			c2.163,1.438,4.504,2.183,6.686,2.183c1.157,0,2.27-0.21,3.287-0.637c2.85-1.195,5.001-4.408,5.615-8.386
			C288.055,169.578,285.326,163.16,279.817,158.489z"/>
		<path fill="#FFFFFF" d="M306.775,172.341c-1.647,1.165-2.798,0.819-3.52,0.46c-2.687-1.343-4.898-6.124-5.034-10.887
			c-0.126-4.395,0.526-13.982,1.167-22.028l3.922,0.819c0.167,0.035,0.334,0.052,0.499,0.052c1.125,0,2.135-0.787,2.375-1.932
			c0.274-1.313-0.568-2.6-1.881-2.874l-4.514-0.943c0.399-4.699,0.719-8.09,0.728-8.185c0.127-1.336-0.853-2.521-2.188-2.647
			c-1.34-0.118-2.521,0.854-2.647,2.188c-0.035,0.362-0.322,3.414-0.685,7.643l-6.009-1.255c-1.313-0.276-2.599,0.568-2.874,1.88
			c-0.274,1.313,0.568,2.6,1.881,2.874l6.597,1.378c-0.666,8.271-1.363,18.418-1.228,23.169c0.192,6.713,3.366,12.919,7.72,15.093
			c1.144,0.571,2.332,0.855,3.523,0.855c1.687,0,3.382-0.569,4.974-1.695c1.095-0.775,1.354-2.291,0.579-3.386
			C309.386,171.825,307.871,171.567,306.775,172.341z"/>
		<path fill="#FFFFFF" d="M358.453,142.56c-0.163-0.015-0.324-0.022-0.486-0.022c-5.063,0-9.463,7.498-12.741,15.602
			c-1.546-1.174-2.467-2.006-2.5-2.035c-0.826-0.752-2.026-0.818-2.927-0.25c2.833-6.23,1.771-10.422,0.685-12.574
			c-1.64-3.251-4.564-4.771-6.736-4.836c-6.611-0.166-10.858,4.286-13.303,8.183c0.097-6.485,0.098-11.484,0.098-12.025
			c-0.001-1.341-1.088-2.428-2.429-2.428c0,0-0.001,0-0.001,0c-1.341,0.001-2.428,1.089-2.427,2.43
			c0.003,4.821-0.071,13.658-0.321,22.129c-0.234,0.959-0.262,1.961-0.095,2.959c-0.277,7.879-0.722,14.97-1.421,17.552
			c-0.351,1.295,0.415,2.629,1.709,2.979c0.213,0.058,0.426,0.085,0.636,0.085c1.07,0,2.05-0.712,2.343-1.794
			c0.593-2.189,1.009-6.8,1.304-12.236c0.068,0.044,0.132,0.093,0.202,0.136c2.037,1.253,4.711,1.928,7.571,1.361
			c0.691,8.517,1.907,19.312,9.12,21.11c0.52,0.13,1.045,0.187,1.566,0.187c3.38,0,6.588-2.38,6.993-2.69
			c1.063-0.817,1.263-2.342,0.445-3.405c-0.817-1.064-2.341-1.265-3.405-0.446c-0.939,0.723-3.196,1.947-4.425,1.643
			c-4.211-1.05-5.089-12.167-5.561-18.139c-0.009-0.116-0.018-0.23-0.027-0.344c1.56-1.108,3.105-2.667,4.567-4.775
			c0.688-0.991,1.269-1.938,1.785-2.852c0.04,0.603,0.299,1.191,0.781,1.631c0.174,0.158,1.647,1.486,3.997,3.179
			c-1.433,4.098-2.556,8.009-3.304,10.831c-0.344,1.296,0.428,2.626,1.725,2.97c1.298,0.34,2.626-0.429,2.97-1.726
			c0.854-3.219,1.821-6.361,2.842-9.305c4.258,2.517,9.744,4.95,15.432,5.315c0.625,8.342,0.677,15.618,0.677,15.702
			c0.008,1.336,1.094,2.414,2.428,2.414c0.005,0,0.01,0,0.015,0c1.341-0.009,2.422-1.102,2.414-2.443
			c-0.001-0.104-0.074-10.466-1.103-20.783C365.963,149.979,363.243,143.015,358.453,142.56z M322.587,162.273
			c-1.237-0.761-2.126-1.928-2.442-3.029c0.02-0.558,0.038-1.115,0.055-1.675c0.02-0.047,0.026-0.099,0.05-0.144
			c0.612-1.132,1.154-1.219,1.437-1.219c0.029,0,0.055,0.001,0.078,0.002c1.675,0.058,4.165,2.426,5.028,4.323
			c0.152,0.345,0.285,1.248,0.403,2.354C325.617,163.36,324.044,163.17,322.587,162.273z M332.897,158.143
			c-0.414,0.597-0.838,1.141-1.271,1.633c-0.114-0.483-0.248-0.896-0.411-1.254c-1.137-2.5-4.305-6.122-7.935-6.982
			c1.459-3.1,4.782-8.45,10.326-8.24c0.393,0.012,1.725,0.547,2.543,2.168C337.02,147.194,337.757,151.139,332.897,158.143z
			 M357.866,147.384c0.031,0,0.062,0.002,0.092,0.004c0.03,0.012,2.964,1.317,4.725,18.669c-4.836-0.48-9.615-2.779-13.286-5.051
			C352.556,153.013,355.901,147.384,357.866,147.384z"/>
		<path fill="#FFFFFF" d="M388.438,174.146c-0.569,0.208-2.057,0.613-3.602-0.18c-1.689-0.865-3.034-2.958-3.89-6.052
			c-0.919-3.325-0.247-10.702,0.883-18.238l6.768,1.983c0.228,0.067,0.458,0.099,0.684,0.099c1.05,0,2.019-0.687,2.33-1.745
			c0.377-1.287-0.36-2.637-1.647-3.014l-7.354-2.156c0.978-5.697,2.083-10.999,2.802-14.142c0.299-1.307-0.518-2.609-1.825-2.909
			s-2.61,0.518-2.91,1.824c-0.302,1.318-1.586,7.028-2.776,13.847l-5.654-1.657c-1.288-0.381-2.637,0.36-3.014,1.646
			c-0.377,1.287,0.36,2.637,1.647,3.014l6.229,1.826c-1.232,8.083-2.031,16.626-0.845,20.917c1.245,4.502,3.384,7.558,6.357,9.08
			c1.301,0.667,2.744,1.004,4.2,1.004c1.111,0,2.231-0.196,3.301-0.593c1.258-0.465,1.901-1.862,1.436-3.12
			C391.092,174.324,389.695,173.68,388.438,174.146z"/>
		<path fill="#FFFFFF" d="M402.41,150.584c-1.325-0.215-2.568,0.694-2.777,2.02c-0.115,0.73-2.817,18-2.324,27.665
			c0.066,1.297,1.139,2.305,2.423,2.305c0.042,0,0.083-0.001,0.125-0.003c1.34-0.068,2.37-1.21,2.302-2.55
			c-0.467-9.159,2.244-26.485,2.271-26.659C404.639,152.036,403.734,150.793,402.41,150.584z"/>
		<path fill="#FFFFFF" d="M445.807,153.473c0.853-1.035,0.704-2.565-0.332-3.418c-1.033-0.85-2.564-0.705-3.418,0.332
			c-1.029,1.251-3.103,3.452-5.534,5.437c-0.102-3.809-0.808-7.962-2.992-10.812c-1.468-1.914-3.486-3.068-5.836-3.338
			c-0.28-0.031-0.562-0.048-0.842-0.048c-7.256,0-13.248,10.202-13.759,19.323c-0.73,13.026,3.712,17.112,7.567,18.246
			c0.5,0.146,1.034,0.221,1.589,0.221c5.271,0,12.435-6.91,13.77-15.818c0.066-0.446,0.138-0.975,0.206-1.557
			C441.195,158.939,445.126,154.299,445.807,153.473z M426.853,146.483c0.097,0,0.193,0.005,0.289,0.017
			c1.054,0.12,1.858,0.587,2.534,1.467c1.559,2.034,2.246,6.105,1.947,11.062c-1.746,0.823-3.461,1.231-4.938,0.847
			c-5.734-1.493-6.511-4.328-6.75-6.466C421.802,149.366,424.613,146.483,426.853,146.483z M422.25,174.56
			c-0.119,0-0.188-0.016-0.218-0.024c-3.023-0.889-4.513-5.741-4.088-13.314c0.013-0.229,0.042-0.456,0.063-0.684
			c1.524,1.619,3.857,3.104,7.455,4.04c0.789,0.205,1.586,0.299,2.387,0.299c1.015,0,2.033-0.153,3.043-0.421
			C429.291,170.776,424.29,174.56,422.25,174.56z"/>
		<path fill="#FFFFFF" d="M477.587,139.598c-1.243-0.507-2.659,0.094-3.163,1.337c-3.703,9.122-6.387,23.753-7.846,33.161
			l-8.983-22.03c-0.362-0.888-1.213-1.479-2.171-1.511c-0.993,0.003-1.846,0.507-2.264,1.368
			c-3.749,7.731-7.809,31.126-7.979,32.118c-0.228,1.321,0.659,2.577,1.981,2.806c0.14,0.023,0.278,0.035,0.415,0.035
			c1.16,0,2.187-0.834,2.391-2.017c0.032-0.19,2.682-15.464,5.516-25.114l9.999,24.521c0.418,1.024,1.469,1.638,2.573,1.49
			c1.097-0.148,1.955-1.02,2.087-2.118c0.033-0.273,3.339-27.476,8.781-40.883C479.429,141.519,478.831,140.102,477.587,139.598z"/>
		<path fill="#FFFFFF" d="M553.344,168.203c-1.823,0.045-4.023-0.031-6.447-0.191c-0.032-17.006,0.873-31.117,0.887-31.325
			c0.088-1.338-0.925-2.494-2.264-2.582c-1.338-0.102-2.494,0.927-2.582,2.264c-0.014,0.208-0.915,14.229-0.897,31.244
			c-4.752-0.46-9.97-1.13-14.897-1.835c-0.066-15.654,0.522-29.611,0.532-29.844c0.059-1.341-0.98-2.474-2.32-2.531
			c-1.328-0.076-2.474,0.98-2.531,2.32c-0.041,0.935-0.601,14.206-0.554,29.333c-8.47-1.292-15.103-2.494-15.25-2.521
			c-1.319-0.235-2.585,0.636-2.825,1.954c-0.24,1.319,0.635,2.584,1.954,2.825c0.615,0.112,7.513,1.361,16.158,2.668
			c0.115,9.36,0.499,18.99,1.405,26.542c0.148,1.233,1.196,2.14,2.408,2.14c0.097,0,0.194-0.006,0.292-0.018
			c1.332-0.16,2.282-1.369,2.122-2.7c-0.852-7.1-1.226-16.247-1.349-25.251c4.933,0.698,10.127,1.353,14.886,1.798
			c0.082,6.917,0.333,14.141,0.868,21.008c0.099,1.273,1.163,2.24,2.418,2.24c0.063,0,0.128-0.003,0.191-0.008
			c1.338-0.104,2.337-1.272,2.232-2.609c-0.515-6.611-0.763-13.562-0.85-20.244c1.936,0.122,3.741,0.193,5.339,0.193
			c0.41,0,0.808-0.004,1.19-0.014c1.341-0.032,2.401-1.146,2.369-2.486S554.684,168.162,553.344,168.203z"/>
		<path fill="#FFFFFF" d="M572.794,146.215c-3.815-0.622-7.646,2.636-10.511,8.936c-0.776,1.707-1.412,3.799-1.935,6.114
			c-2.713-2.021-5.04-3.92-6.513-5.199c-1.014-0.88-2.546-0.773-3.426,0.24c-0.88,1.013-0.772,2.546,0.24,3.426
			c0.803,0.698,4.266,3.661,8.736,6.865c-1.703,11.818-1.337,25.973-1.314,26.783c0.037,1.317,1.117,2.36,2.427,2.36
			c0.022,0,0.046-0.001,0.069-0.001c1.341-0.038,2.396-1.155,2.359-2.496c-0.005-0.181-0.329-12.669,0.945-23.603
			c4.474,2.855,9.347,5.381,13.41,6.092c0.943,9.475,1.589,16.393,1.599,16.493c0.124,1.335,1.29,2.309,2.644,2.192
			c1.335-0.124,2.316-1.308,2.192-2.644c-0.014-0.147-1.392-14.916-3.074-30.943C579.467,149.614,575.726,146.691,572.794,146.215z
			 M564.661,164.33c0.52-2.79,1.187-5.281,2.045-7.17c2.165-4.761,4.431-6.287,5.31-6.151c0.955,0.155,2.979,2.514,3.799,10.33
			c0.335,3.195,0.658,6.339,0.961,9.328C573.273,169.699,568.819,167.141,564.661,164.33z"/>
		<path fill="#FFFFFF" d="M607.365,144.24c0.103-1.337-0.898-2.504-2.236-2.607c-1.338-0.084-2.504,0.898-2.607,2.236
			c-0.609,7.951,1.051,21.066,2.454,30.169l-14.591-19.809c-0.66-0.895-1.844-1.229-2.875-0.808
			c-1.03,0.422-1.642,1.489-1.484,2.592c0.712,4.979,3.117,31.762,3.142,32.031c0.113,1.263,1.173,2.212,2.416,2.212
			c0.073,0,0.146-0.003,0.22-0.01c1.336-0.12,2.322-1.3,2.202-2.636c-0.069-0.774-1.235-13.754-2.18-23.237l15.291,20.76
			c0.672,0.912,1.887,1.238,2.925,0.786c1.039-0.453,1.627-1.564,1.417-2.678C611.407,182.976,606.428,156.442,607.365,144.24z"/>
		<path fill="#FFFFFF" d="M627.495,144.703c-2.762-1.063-5.541-0.742-7.524-0.104c0.014-1.663,0.028-2.659,0.029-2.713
			c0.021-1.342-1.05-2.445-2.391-2.466c-0.014-0.001-0.026-0.001-0.039-0.001c-1.323,0-2.406,1.062-2.428,2.391
			c-0.02,1.288-0.466,31.676,1.492,43.056c0.124,0.717,0.562,1.341,1.194,1.699c0.37,0.211,0.783,0.317,1.199,0.317
			c0.295,0,0.591-0.054,0.872-0.162c0.195-0.075,19.501-7.777,15.605-29.95C634.106,148.805,630.376,145.812,627.495,144.703z
			 M620.975,180.711c-0.881-8.318-1.032-22.057-1.027-30.765c0.192-0.081,0.379-0.188,0.552-0.324
			c0.518-0.354,3.078-1.304,5.399-0.326c3,1.261,4.279,5.217,4.823,8.313C633.091,171.098,625.374,177.965,620.975,180.711z"/>
		<path fill="#FFFFFF" d="M662.671,182.115c-4.358-1.226-11.049-1.125-14.471-0.971c-1.523-9.557-2.854-38.477-3.378-53.518
			c-0.047-1.342-1.223-2.382-2.511-2.343c-1.341,0.046-2.39,1.171-2.343,2.511c0.067,1.943,1.68,47.698,3.903,56.494
			c0.291,1.146,1.369,1.916,2.547,1.825c0.097-0.009,9.836-0.759,14.936,0.677c0.221,0.062,0.441,0.091,0.659,0.091
			c1.061,0,2.035-0.699,2.337-1.771C664.714,183.82,663.962,182.479,662.671,182.115z"/>
		<path fill="#FFFFFF" d="M681.65,171.181c-1.281-0.384-2.638,0.347-3.021,1.633c-0.607,2.035-3.782,4.397-6.967,4.397
			c-0.002,0-0.004,0-0.006,0c-3.584-0.004-5.257-3.111-6.029-5.717c-0.313-1.06-0.581-2.086-0.802-3.078
			c0.229,0.022,0.459,0.04,0.694,0.052c5.744,0.303,10.448-1.765,12.933-5.676c2.2-3.464,2.298-7.983,0.255-11.797
			c-1.872-3.493-7.325-4.854-11.908-2.969c-5.446,2.239-7.254,7.264-7.525,12.32c-2.382-2.918-2.832-6.76-2.859-7.013
			c-0.138-1.33-1.329-2.305-2.658-2.165c-1.335,0.134-2.308,1.325-2.173,2.659c0.374,3.719,2.556,10.069,8.054,13.041
			c0.379,2.533,0.946,4.695,1.334,6.004c1.729,5.839,5.622,9.189,10.68,9.195c0.004,0,0.008,0,0.012,0
			c5.114,0,10.325-3.526,11.621-7.866C683.667,172.917,682.935,171.564,681.65,171.181z M664.073,163.382
			c-0.365-5.594,1.201-9.478,4.572-10.863c2.687-1.104,5.307-0.114,5.78,0.771c1.234,2.304,1.207,4.882-0.073,6.897
			c-1.54,2.423-4.591,3.64-8.575,3.431C665.17,163.586,664.603,163.505,664.073,163.382z"/>
		<path fill="#FFFFFF" d="M707.893,171.727c-3.235-0.299-4.305-2.276-4.238-7.836c0.019-1.583,0.777-6.626,1.723-12.327
			c1.511,0.141,3.046,0.218,4.597,0.218c0.925,0,1.856-0.028,2.79-0.086c1.338-0.083,2.355-1.236,2.272-2.575
			s-1.22-2.349-2.575-2.272c-2.106,0.132-4.207,0.082-6.27-0.099c0.907-5.271,1.844-10.45,2.407-13.492
			c0.244-1.319-0.627-2.586-1.945-2.83c-1.323-0.251-2.587,0.627-2.83,1.945c-0.237,1.284-1.339,7.259-2.451,13.717
			c-2.217-0.408-4.349-0.938-6.35-1.532c0.933-4.341,1.65-7.378,1.672-7.468c0.311-1.305-0.496-2.614-1.801-2.924
			c-1.306-0.312-2.614,0.496-2.924,1.801c-0.082,0.347-0.734,3.104-1.585,7.036c-5.938-2.221-9.893-4.566-9.971-4.613
			c-1.146-0.69-2.642-0.322-3.332,0.827c-0.692,1.148-0.323,2.64,0.824,3.332c0.354,0.214,4.826,2.874,11.462,5.285
			c-1.787,8.75-3.794,20.068-3.555,25.778c0.147,3.503,1.296,6.208,3.413,8.039c1.9,1.645,4.465,2.473,7.642,2.473
			c0.677,0,1.381-0.037,2.112-0.112c1.335-0.138,2.305-1.33,2.168-2.664c-0.138-1.334-1.335-2.311-2.664-2.168
			c-2.787,0.285-4.828-0.118-6.08-1.201c-1.064-0.921-1.649-2.458-1.737-4.569c-0.215-5.105,1.645-15.639,3.354-24.054
			c2.061,0.597,4.256,1.128,6.54,1.542c-0.95,5.752-1.741,11.063-1.764,12.936c-0.039,3.26-0.143,11.918,8.648,12.73
			c0.076,0.007,0.151,0.011,0.227,0.011c1.24,0,2.299-0.945,2.415-2.205C710.211,173.032,709.228,171.85,707.893,171.727z"/>
		<path fill="#FFFFFF" d="M744.702,171.793c-1.294-0.337-2.622,0.446-2.957,1.746c-0.287,1.115-4.293,4.438-8.872,4.326
			c-4.204-0.078-6.982-3.087-8.26-8.942c-0.237-1.088-0.408-2.13-0.518-3.126c1.257,0.102,2.583,0.121,3.966,0.033
			c5.503-0.356,10.465-3.876,12.641-8.965c1.567-3.667,1.242-7.357-0.869-9.874c-2.478-2.949-7.029-3.51-11.325-1.398
			c-4.184,2.055-8.335,6.822-9.244,14.332c-3.062-0.957-4.975-2.198-5.048-2.246c-1.111-0.749-2.615-0.457-3.367,0.654
			c-0.751,1.11-0.46,2.62,0.651,3.372c0.184,0.124,3.082,2.052,7.645,3.246c0.104,1.577,0.339,3.246,0.723,5.007
			c2.387,10.94,9.116,12.692,12.916,12.764c0.085,0.001,0.17,0.002,0.256,0.002c6.313,0,12.468-4.315,13.409-7.974
			C746.783,173.451,746,172.127,744.702,171.793z M730.649,149.952c2.223-1.093,4.468-1.023,5.463,0.162
			c0.91,1.084,0.956,2.894,0.124,4.842c-1.198,2.804-4.288,5.755-8.489,6.026c-1.293,0.085-2.534,0.048-3.702-0.07
			C724.633,155.059,727.612,151.443,730.649,149.952z"/>
		<path fill="#FFFFFF" d="M787.945,185.082c-1.198-0.6-2.658-0.114-3.258,1.086c-0.01,0.02-1.051,2.041-2.904,3.622
			c-2.274,1.938-4.653,2.291-7.28,1.074c-3.184-1.474-5.009-9.29-6.341-14.998c-0.196-0.839-0.382-1.626-0.561-2.364
			c2.255-1.29,4.288-2.953,5.735-4.84c2.904-3.785,3.277-8.055,1.048-12.02c-3.062-5.449-7.294-5.686-9.545-5.34
			c-3.396,0.521-6.562,2.875-8.869,5.58c0.599-5.691,1.198-9.677,1.212-9.77c0.202-1.326-0.709-2.564-2.034-2.767
			c-1.325-0.209-2.565,0.707-2.767,2.034c-0.141,0.922-3.428,22.747-2.206,38.263c0.1,1.272,1.163,2.238,2.418,2.238
			c0.064,0,0.129-0.003,0.193-0.008c1.337-0.105,2.336-1.274,2.23-2.611c-0.21-2.671-0.275-5.567-0.244-8.522
			c0.275,0.107,0.563,0.202,0.865,0.279c2.134,0.544,4.78,0.297,7.444-0.536c0.121,0.512,0.238,1.013,0.35,1.487
			c1.731,7.421,3.695,15.832,9.029,18.301c1.778,0.824,3.452,1.173,5.008,1.173c5.805,0,9.944-4.869,11.562-8.104
			C789.63,187.141,789.145,185.682,787.945,185.082z M756.842,171.313c-0.805-0.205-0.851-0.501-0.885-0.717
			c-0.231-1.493,0.305-1.859,0.506-1.997c0.409-0.279,1.01-0.414,1.68-0.414c0.917,0,1.964,0.252,2.828,0.732
			c0.268,0.298,0.558,0.978,0.851,1.865C759.903,171.415,758.084,171.636,756.842,171.313z M763.49,164.763
			c-1.65-0.957-3.521-1.438-5.296-1.438c-0.236,0-0.471,0.009-0.703,0.026c1.188-2.785,4.831-6.748,8.085-7.247
			c1.155-0.173,2.896-0.069,4.574,2.919c1.27,2.258,1.052,4.443-0.667,6.683c-0.854,1.113-1.997,2.111-3.267,2.95
			C765.501,166.712,764.687,165.458,763.49,164.763z"/>
		<path fill="#FFFFFF" d="M784.508,153.654c-1.341,0.035-2.398,1.151-2.363,2.492l0.602,22.777c0.035,1.318,1.115,2.364,2.427,2.364
			c0.021,0,0.043,0,0.065-0.001c1.341-0.035,2.398-1.151,2.363-2.492L787,156.018C786.964,154.678,785.878,153.606,784.508,153.654z
			"/>
		<path fill="#FFFFFF" d="M798.08,160.922c4.076,7.673,10.158,18.652,13.032,21.509c0.689,0.686,1.72,0.891,2.619,0.53
			c0.9-0.362,1.498-1.227,1.521-2.197c0.187-8.066,1.216-30.459,3.708-37.113c0.471-1.256-0.167-2.655-1.423-3.126
			c-1.253-0.467-2.656,0.166-3.126,1.423c-2.302,6.146-3.334,22.05-3.757,31.461c-3.718-6.095-8.772-15.547-12.18-22.24
			c-0.483-0.95-1.529-1.479-2.58-1.291c-1.05,0.183-1.858,1.028-1.993,2.086c-1.714,13.469-0.079,31.209-0.009,31.958
			c0.118,1.258,1.177,2.201,2.415,2.201c0.076,0,0.153-0.004,0.23-0.011c1.335-0.126,2.316-1.311,2.19-2.646
			C798.714,183.324,797.674,172.044,798.08,160.922z"/>
		<path fill="#FFFFFF" d="M842.349,166.039c1.327,0.199,2.559-0.73,2.749-2.058c0.523-3.639-0.38-11.077-7.547-13.185
			c-3.349-0.981-6.937-0.146-10.104,2.365c-4.626,3.67-7.39,10.016-7.041,16.169c0.51,9.011,4.146,14.011,10.81,14.861
			c3.146,0.395,6.075-1.928,8.229-4.374c0.771,5.594,0.972,13.333-1.977,18.107c-1.475,2.388-3.579,3.834-6.436,4.421
			c-15.921,3.281-21.716-7.229-22.713-9.368c-0.566-1.216-2.011-1.739-3.228-1.175c-1.216,0.567-1.741,2.012-1.175,3.228
			c1.105,2.369,6.8,12.818,21.149,12.818c2.121,0,4.432-0.229,6.944-0.745c4.179-0.859,7.405-3.089,9.59-6.627
			c6.071-9.831,1.685-26.583,1.495-27.291c-0.255-0.952-1.059-1.655-2.036-1.781c-0.964-0.117-1.932,0.353-2.42,1.208
			c-1.911,3.358-5.228,6.992-6.811,6.761c-4.173-0.532-6.2-3.715-6.574-10.318c-0.258-4.554,1.835-9.411,5.209-12.088
			c1.34-1.062,3.413-2.188,5.716-1.511c4.895,1.438,4.148,7.546,4.108,7.842C840.104,164.623,841.024,165.849,842.349,166.039z"/>
		<ellipse fill="#FFFFFF" cx="187.853" cy="130.134" rx="3.277" ry="3.544"/>
		<ellipse fill="#FFFFFF" cx="86.89" cy="138.401" rx="3.289" ry="3.272"/>
		<ellipse fill="#FFFFFF" cx="164.478" cy="162.783" rx="7.582" ry="7.971"/>
		<ellipse fill="#FFFFFF" cx="403.957" cy="128.987" rx="3.225" ry="3.897"/>
		<ellipse fill="#FFFFFF" cx="489.263" cy="166.882" rx="5.737" ry="6.36"/>
		<ellipse fill="#FFFFFF" cx="783.713" cy="138.047" rx="3.146" ry="3.801"/>
		<ellipse fill="#FFFFFF" cx="646.942" cy="29.819" rx="3.265" ry="3.442"/>
		
			<ellipse transform="matrix(0.2514 0.9679 -0.9679 0.2514 343.4691 -388.6117)" fill="#FFFFFF" cx="422.964" cy="27.74" rx="3.886" ry="3.054"/>
		<ellipse fill="#FFFFFF" cx="255.593" cy="15.008" rx="3.167" ry="3.531"/>
	</g>
</g>
</svg>
