<?xml version="1.0" encoding="utf-8"?>
<!-- Generator: Adobe Illustrator 25.3.1, SVG Export Plug-In . SVG Version: 6.00 Build 0)  -->
<svg version="1.1" id="Ebene_1" xmlns="http://www.w3.org/2000/svg" xmlns:xlink="http://www.w3.org/1999/xlink" x="0px" y="0px"
	 viewBox="0 0 40 40" style="enable-background:new 0 0 40 40;" xml:space="preserve">
<style type="text/css">
	.st0{fill:#FFFFFF;}
</style>
<path id="twitter" class="st0" d="M39.09,7.4c-0.63,0.28-1.27,0.51-1.93,0.7c0.78-0.88,1.38-1.92,1.74-3.06
	c0.08-0.26,0-0.53-0.21-0.7c-0.21-0.17-0.5-0.19-0.73-0.05c-1.4,0.83-2.91,1.43-4.5,1.78c-1.6-1.56-3.77-2.45-6.01-2.45
	c-4.73,0-8.59,3.85-8.59,8.59c0,0.37,0.02,0.74,0.07,1.11c-5.88-0.52-11.34-3.4-15.09-8C3.71,5.15,3.5,5.06,3.29,5.08
	S2.89,5.22,2.78,5.4C2.02,6.7,1.62,8.2,1.62,9.72c0,2.07,0.74,4.03,2.04,5.57c-0.4-0.14-0.78-0.31-1.15-0.51
	c-0.2-0.11-0.44-0.11-0.63,0c-0.2,0.11-0.32,0.32-0.32,0.55c0,0.04,0,0.08,0,0.11c0,3.09,1.66,5.87,4.2,7.38
	c-0.22-0.02-0.44-0.05-0.65-0.09c-0.22-0.04-0.45,0.04-0.6,0.21c-0.15,0.17-0.2,0.41-0.13,0.62c0.94,2.94,3.36,5.1,6.29,5.76
	c-2.43,1.52-5.21,2.32-8.12,2.32c-0.61,0-1.22-0.04-1.82-0.11c-0.3-0.04-0.58,0.14-0.68,0.42s0.01,0.6,0.26,0.76
	c3.74,2.4,8.08,3.67,12.52,3.67c8.74,0,14.21-4.12,17.26-7.58c3.8-4.31,5.98-10.02,5.98-15.66c0-0.24,0-0.47-0.01-0.71
	c1.5-1.13,2.79-2.5,3.84-4.07c0.16-0.24,0.14-0.55-0.04-0.77C39.66,7.36,39.36,7.29,39.09,7.4z"/>
</svg>
